<?xml version="1.0" encoding="UTF-8" standalone="no"?>
<!DOCTYPE svg PUBLIC "-//W3C//DTD SVG 1.1//EN" "http://www.w3.org/Graphics/SVG/1.1/DTD/svg11.dtd">
<svg width="80.00" height="278.00" viewBox="0.00 0.00 80.00 278.00" xmlns="http://www.w3.org/2000/svg" xmlns:xlink="http://www.w3.org/1999/xlink">
<g stroke-linecap="round" transform="translate(-491.00, -627.00)" id="th_slider_2">
<path d="M529.82,655.00 L529.18,884.00" fill="none" stroke="rgb(35, 33, 35)" stroke-width="8.00" stroke-opacity="1.00" stroke-linejoin="round"/>
<path d="M521.50,713.00 L538.50,713.00" fill="none" stroke="rgb(35, 33, 35)" stroke-width="4.00" stroke-opacity="1.00" stroke-linejoin="round"/>
<path d="M521.00,830.00 L539.50,829.50" fill="none" stroke="rgb(35, 33, 35)" stroke-width="4.00" stroke-opacity="1.00" stroke-linejoin="round"/>
<path d="M508.00,769.65 L552.54,769.05" fill="none" stroke="rgb(35, 33, 35)" stroke-width="4.00" stroke-opacity="1.00" stroke-linejoin="round"/>
<path d="M498.94,769.22 C498.94,769.22 498.09,769.91 498.09,769.91 C498.09,769.91 499.30,769.97 499.30,769.97 C499.30,769.97 499.04,768.75 499.04,768.75 C497.95,769.32 498.36,770.20 498.82,770.80 C498.82,770.80 499.72,769.43 499.72,769.43 C499.72,769.43 498.26,769.45 498.26,769.45 C498.26,769.45 498.88,770.52 498.88,770.52 C498.88,770.52 499.43,770.37 499.43,770.37" fill="none" stroke="rgb(35, 33, 35)" stroke-width="4.00" stroke-opacity="1.00" stroke-linejoin="round"/>
<path d="M562.07,769.20 C562.07,769.20 561.95,768.82 561.95,768.82 C561.95,768.82 560.83,769.79 560.83,769.79 C560.83,769.79 562.31,769.76 562.31,769.76 C562.31,769.76 561.79,768.89 561.79,768.89 C561.79,768.89 560.54,769.38 560.54,769.38 C560.54,769.38 561.16,770.88 561.16,770.88 C561.16,770.88 562.68,769.47 562.68,769.47 C562.68,769.47 560.91,769.09 560.91,769.09 C560.91,769.09 561.26,770.74 561.26,770.74 C561.77,770.78 562.10,770.77 562.25,770.71 C562.40,770.66 562.58,770.46 562.78,770.14" fill="none" stroke="rgb(35, 33, 35)" stroke-width="4.00" stroke-opacity="1.00" stroke-linejoin="round"/>
<path d="M533.50,641.06 Q537.62,642.62 540.19,646.31 Q542.75,650.00 542.81,653.56 Q542.88,657.12 542.81,768.94 Q542.75,880.75 542.44,884.88 Q542.12,889.00 539.06,892.62 Q536.00,896.25 532.88,897.44 Q529.75,898.62 525.69,897.12 Q521.62,895.62 519.25,892.50 Q516.88,889.38 516.50,886.19 Q516.12,883.00 516.19,879.62 Q516.25,876.25 516.44,766.44 Q516.62,656.62 517.00,652.44 Q517.38,648.25 520.00,645.38 Q522.62,642.50 526.00,641.00 Q529.38,639.50 533.50,641.06 Z" fill="none" stroke="rgb(35, 33, 35)" stroke-width="4.00" stroke-opacity="1.00" stroke-linejoin="miter"/>
<path d="M520.50,653.50 L539.00,653.00" fill="none" stroke="rgb(35, 33, 35)" stroke-width="4.00" stroke-opacity="1.00" stroke-linejoin="round"/>
<path d="M521.00,885.50 L539.50,885.00" fill="none" stroke="rgb(35, 33, 35)" stroke-width="4.00" stroke-opacity="1.00" stroke-linejoin="round"/>
</g>
</svg>
