<?xml version="1.0" encoding="UTF-8" standalone="no"?>
<!DOCTYPE svg PUBLIC "-//W3C//DTD SVG 1.1//EN" "http://www.w3.org/Graphics/SVG/1.1/DTD/svg11.dtd">
<svg width="1920.00" height="1080.00" viewBox="0.00 0.00 1920.00 1080.00" xmlns="http://www.w3.org/2000/svg" xmlns:xlink="http://www.w3.org/1999/xlink">
<g stroke-linecap="round" id="th_slider_2_Copy">
<path d="M131.70,588.32 L132.15,937.15" fill="none" stroke="rgb(35, 33, 35)" stroke-width="8.00" stroke-opacity="1.00" stroke-linejoin="round"/>
<path d="M123.65,671.66 L140.65,672.06" fill="none" stroke="rgb(35, 33, 35)" stroke-width="4.00" stroke-opacity="1.00" stroke-linejoin="round"/>
<path d="M123.71,853.18 L142.21,852.84" fill="none" stroke="rgb(35, 33, 35)" stroke-width="4.00" stroke-opacity="1.00" stroke-linejoin="round"/>
<path d="M110.42,759.23 L154.96,759.36" fill="none" stroke="rgb(35, 33, 35)" stroke-width="4.00" stroke-opacity="1.00" stroke-linejoin="round"/>
<path d="M101.36,758.36 C101.36,758.36 100.51,759.41 100.51,759.41 C100.51,759.41 101.73,759.53 101.73,759.53 C101.73,759.53 101.46,757.63 101.46,757.63 C100.37,758.49 100.79,759.87 101.25,760.80 C101.25,760.80 102.14,758.70 102.14,758.70 C102.14,758.70 100.68,758.70 100.68,758.70 C100.68,758.70 101.31,760.38 101.31,760.38 C101.31,760.38 101.86,760.15 101.86,760.15" fill="none" stroke="rgb(35, 33, 35)" stroke-width="4.00" stroke-opacity="1.00" stroke-linejoin="round"/>
<path d="M164.49,759.81 C164.49,759.81 164.37,759.21 164.37,759.21 C164.37,759.21 163.25,760.69 163.25,760.69 C163.25,760.69 164.73,760.68 164.73,760.68 C164.73,760.68 164.21,759.33 164.21,759.33 C164.21,759.33 162.96,760.06 162.96,760.06 C162.96,760.06 163.59,762.39 163.59,762.39 C163.59,762.39 165.10,760.23 165.10,760.23 C165.10,760.23 163.33,759.62 163.33,759.62 C163.33,759.62 163.68,762.18 163.68,762.18 C164.19,762.26 164.53,762.25 164.67,762.16 C164.82,762.07 165.00,761.78 165.20,761.28" fill="none" stroke="rgb(35, 33, 35)" stroke-width="4.00" stroke-opacity="1.00" stroke-linejoin="round"/>
<path d="M135.31,560.33 Q139.44,562.85 142.02,568.63 Q144.60,574.41 144.68,579.94 Q144.76,585.47 145.23,758.95 Q145.70,932.43 145.41,938.82 Q145.12,945.21 142.07,950.77 Q139.03,956.32 135.91,958.09 Q132.79,959.86 128.72,957.43 Q124.65,955.01 122.26,950.11 Q119.87,945.20 119.48,940.25 Q119.09,935.29 119.14,930.06 Q119.18,924.82 118.84,754.45 Q118.51,584.08 118.86,577.59 Q119.22,571.10 121.83,566.70 Q124.44,562.30 127.81,560.05 Q131.17,557.81 135.31,560.33 Z" fill="none" stroke="rgb(35, 33, 35)" stroke-width="4.00" stroke-opacity="1.00" stroke-linejoin="miter"/>
<path d="M129.99,939.18 L133.76,939.11" fill="none" stroke="rgb(35, 33, 35)" stroke-width="4.00" stroke-opacity="1.00" stroke-linejoin="round"/>
</g>
</svg>
