<?xml version="1.0" encoding="UTF-8" standalone="no"?>
<!DOCTYPE svg PUBLIC "-//W3C//DTD SVG 1.1//EN" "http://www.w3.org/Graphics/SVG/1.1/DTD/svg11.dtd">
<svg width="73.00" height="265.00" viewBox="0.00 0.00 73.00 265.00" xmlns="http://www.w3.org/2000/svg" xmlns:xlink="http://www.w3.org/1999/xlink">
<g stroke-linecap="round" transform="translate(-336.00, -636.00)" id="th_slider_1">
<path d="M371.82,655.00 L371.18,884.00" fill="none" stroke="rgb(35, 33, 35)" stroke-width="8.00" stroke-opacity="1.00" stroke-linejoin="round"/>
<path d="M363.50,713.00 L380.50,713.00" fill="none" stroke="rgb(35, 33, 35)" stroke-width="4.00" stroke-opacity="1.00" stroke-linejoin="round"/>
<path d="M363.00,830.00 L381.50,829.50" fill="none" stroke="rgb(35, 33, 35)" stroke-width="4.00" stroke-opacity="1.00" stroke-linejoin="round"/>
<path d="M350.00,769.65 L394.54,769.05" fill="none" stroke="rgb(35, 33, 35)" stroke-width="4.00" stroke-opacity="1.00" stroke-linejoin="round"/>
<path d="M340.94,769.22 C340.94,769.22 340.09,769.91 340.09,769.91 C340.09,769.91 341.30,769.97 341.30,769.97 C341.30,769.97 341.04,768.75 341.04,768.75 C339.95,769.32 340.36,770.20 340.82,770.80 C340.82,770.80 341.72,769.43 341.72,769.43 C341.72,769.43 340.26,769.45 340.26,769.45 C340.26,769.45 340.88,770.52 340.88,770.52 C340.88,770.52 341.43,770.37 341.43,770.37" fill="none" stroke="rgb(35, 33, 35)" stroke-width="4.00" stroke-opacity="1.00" stroke-linejoin="round"/>
<path d="M404.07,769.20 C404.07,769.20 403.95,768.82 403.95,768.82 C403.95,768.82 402.83,769.79 402.83,769.79 C402.83,769.79 404.31,769.76 404.31,769.76 C404.31,769.76 403.79,768.89 403.79,768.89 C403.79,768.89 402.54,769.38 402.54,769.38 C402.54,769.38 403.16,770.88 403.16,770.88 C403.16,770.88 404.68,769.47 404.68,769.47 C404.68,769.47 402.91,769.09 402.91,769.09 C402.91,769.09 403.26,770.74 403.26,770.74 C403.77,770.78 404.10,770.77 404.25,770.71 C404.40,770.66 404.58,770.46 404.78,770.14" fill="none" stroke="rgb(35, 33, 35)" stroke-width="4.00" stroke-opacity="1.00" stroke-linejoin="round"/>
<path d="M375.50,641.06 Q379.62,642.62 382.19,646.31 Q384.75,650.00 384.81,653.56 Q384.88,657.12 384.81,768.94 Q384.75,880.75 384.44,884.88 Q384.12,889.00 381.06,892.62 Q378.00,896.25 374.88,897.44 Q371.75,898.62 367.69,897.12 Q363.62,895.62 361.25,892.50 Q358.88,889.38 358.50,886.19 Q358.12,883.00 358.19,879.62 Q358.25,876.25 358.44,766.44 Q358.62,656.62 359.00,652.44 Q359.38,648.25 362.00,645.38 Q364.62,642.50 368.00,641.00 Q371.38,639.50 375.50,641.06 Z" fill="none" stroke="rgb(35, 33, 35)" stroke-width="4.00" stroke-opacity="1.00" stroke-linejoin="miter"/>
</g>
</svg>
